<?xml version="1.0" standalone="no"?>
<!DOCTYPE svg PUBLIC "-//W3C//DTD SVG 20010904//EN"
 "http://www.w3.org/TR/2001/REC-SVG-20010904/DTD/svg10.dtd">
<svg version="1.0" xmlns="http://www.w3.org/2000/svg"
 width="1000.000000pt" height="1080.000000pt" viewBox="0 0 1000.000000 1080.000000"
 preserveAspectRatio="xMidYMid meet">
<g transform="translate(0.000000,1080.000000) scale(0.100000,-0.100000)"
fill="#000000" stroke="none">
<path d="M4695 9849 c-853 -79 -1596 -478 -2076 -1115 -363 -482 -557 -1072
-576 -1749 -20 -718 151 -1284 599 -1981 136 -210 337 -482 798 -1074 666
-855 1068 -1415 1440 -2007 63 -101 117 -183 120 -183 3 1 32 44 64 98 111
182 483 736 663 987 299 417 338 469 1037 1369 480 619 714 970 886 1331 158
331 243 615 287 966 21 170 24 614 5 774 -68 571 -258 1064 -565 1470 -474
627 -1200 1023 -2029 1110 -158 16 -498 18 -653 4z m438 -1209 c354 -29 679
-157 949 -371 263 -210 466 -501 572 -819 61 -183 77 -282 83 -505 5 -175 2
-216 -17 -330 -36 -219 -122 -446 -239 -635 -245 -394 -653 -685 -1101 -784
-105 -23 -148 -28 -350 -41 -158 -10 -400 29 -591 94 -202 69 -345 145 -504
269 -335 260 -563 627 -647 1043 -20 100 -23 142 -23 349 1 206 3 248 23 340
102 468 395 890 785 1129 255 156 498 236 807 265 73 6 139 5 253 -4z"/>
</g>
</svg>
